<svg xmlns="http://www.w3.org/2000/svg" xmlns:xlink="http://www.w3.org/1999/xlink" width="225" height="126"><title>RequestRegistry/Tryout/V1/Icon</title><desc>Created with Sketch.</desc><defs><linearGradient id="b" x1=".258%" x2="101.258%" y1="49.75%" y2="49.75%"><stop offset="0%" stop-color="#271B96"/><stop offset="100%" stop-color="#53A0FD"/><stop offset="100%" stop-color="#5D12A3"/></linearGradient><path id="a" d="M55.5 112l55.5-21.102-30.595-11.633 30.595-11.633-30.595-11.633 30.595-11.633-30.595-11.633 30.595-11.633-55.5-21.102-55.5 21.102 30.595 11.633-30.595 11.633 30.595 11.633-30.595 11.633 30.595 11.633-30.595 11.633 55.5 21.102zm-42.404-90.898l42.404-16.123 42.404 16.123-24.047 9.143-18.357 6.98-18.357-6.98-24.047-9.143zm0 23.265l24.047-9.143 18.357 6.98 18.357-6.98 24.047 9.143-24.047 9.143-18.357 6.98-18.357-6.98-24.047-9.143zm0 23.265l24.047-9.143 18.357 6.98 18.357-6.98 24.047 9.143-24.047 9.143-18.357 6.98-18.357-6.98-24.047-9.143zm60.761 14.122l24.047 9.143-42.404 16.123-42.404-16.123 24.047-9.143 18.357 6.98 18.357-6.98z"/><polygon id="c" points="73.857 81.755 97.904 90.898 55.5 107.021 13.096 90.898 37.143 81.755 55.5 88.735"/><polygon id="d" points="13.096 44.367 37.143 35.224 55.5 42.204 73.857 35.224 97.904 44.367 73.857 53.511 73.857 53.511 55.5 60.49 37.143 53.511 37.143 53.511"/><circle id="e" cx="15.4" cy="15.4" r="15.4"/><circle id="g" cx="15.4" cy="15.4" r="15.4"/><circle id="i" cx="15.4" cy="15.4" r="15.4"/><circle id="k" cx="15.4" cy="15.4" r="15.4"/></defs><g fill="none"><g transform="translate(56 14)"><g><use xlink:href="#a"/><use fill="url(#b)" xlink:href="#a"/></g><g id="Path" opacity=".9"><use xlink:href="#c"/><path fill="url(#b)" fill-rule="evenodd" stroke="#fff" stroke-linejoin="square" stroke-width="2" d="M73.857 82.825l-18.357 6.98-18.357-6.98-21.233 8.073 39.59 15.053 39.59-15.053-21.233-8.073z"/></g><g opacity=".6"><use xlink:href="#d"/><path fill="url(#b)" fill-rule="evenodd" stroke="#fff" stroke-linejoin="square" stroke-width="2" d="M15.91 44.367l21.589 8.209 18.002 6.845 18.002-6.845 21.589-8.209-21.233-8.073-18.357 6.98-18.357-6.98-21.233 8.073z"/></g></g><g><g id="Endpoint" transform="translate(190)"><g id="Color/Blue" fill-rule="evenodd" transform="translate(2.1 2.1)"><mask id="f"><use xlink:href="#e"/></mask><use id="Mask" xlink:href="#e"/><rect id="Rectangle-3" width="175" height="175" fill="#5097F7" mask="url(#f)" transform="translate(-75.6 -64.4)"/></g><path id="Oval" stroke="#fff" stroke-dasharray="3.5 .7 2.1" stroke-width=".7" d="M17.5 31.5c7.732 0 14-6.268 14-14s-6.268-14-14-14-14 6.268-14 14 6.268 14 14 14z" opacity=".5"/></g><g id="Endpoint" transform="translate(0 28)"><g id="Color/Blue" fill-rule="evenodd" transform="translate(2.1 2.1)"><mask id="h"><use xlink:href="#g"/></mask><use id="Mask" xlink:href="#g"/><rect id="Rectangle-3" width="175" height="175" fill="#271B96" mask="url(#h)" transform="translate(-75.6 -64.4)"/></g><path id="Oval" stroke="#fff" stroke-dasharray="3.5 .7 2.1" stroke-width=".7" d="M17.5 31.5c7.732 0 14-6.268 14-14s-6.268-14-14-14-14 6.268-14 14 6.268 14 14 14z" opacity=".5"/></g><g id="Endpoint" transform="translate(190 52)"><g id="Color/Blue" fill-rule="evenodd" transform="translate(2.1 2.1)"><mask id="j"><use xlink:href="#i"/></mask><use id="Mask" xlink:href="#i"/><rect id="Rectangle-3" width="175" height="175" fill="#5097F7" mask="url(#j)" transform="translate(-75.6 -64.4)"/></g><path id="Oval" stroke="#fff" stroke-dasharray="3.5 .7 2.1" stroke-width=".7" d="M17.5 31.5c7.732 0 14-6.268 14-14s-6.268-14-14-14-14 6.268-14 14 6.268 14 14 14z" opacity=".5"/></g><g><g fill-rule="evenodd" transform="translate(0 74) translate(2.1 2.1)"><mask id="l"><use xlink:href="#k"/></mask><use xlink:href="#k"/><rect width="175" height="175" fill="#271B96" mask="url(#l)" transform="translate(-75.6 -64.4)"/></g><path stroke="#fff" stroke-dasharray="3.5 .7 2.1" stroke-width=".7" d="M17.5 31.5c7.732 0 14-6.268 14-14s-6.268-14-14-14-14 6.268-14 14 6.268 14 14 14z" opacity=".5" transform="translate(0 74)"/></g></g><path stroke="#B7B7B7" stroke-dasharray="2 5" stroke-linecap="round" stroke-linejoin="round" stroke-width="3" d="M188.5 18.25h-57"/><path stroke="#B7B7B7" stroke-dasharray="2 5" stroke-linecap="round" stroke-linejoin="round" stroke-width="3" d="M188.5 69.5h-39"/><path stroke="#B7B7B7" stroke-dasharray="2 5" stroke-linecap="round" stroke-linejoin="round" stroke-width="3" d="M35.5 46.5h37"/><path stroke="#B7B7B7" stroke-dasharray="2 5" stroke-linecap="round" stroke-linejoin="round" stroke-width="3" d="M35.5 93.5h42"/></g></svg>